# xmcd
#
# Track frame offsets:
#	150
#	14005
#	24640
#	36913
#	48670
#	63528
#	76790
#	89195
#	102980
#	120845
#	131930
#	143143
#	154443
#	164138
#	174143
#	189940
#	204295
#	214235
#
# Disc length: 3051
#
# Revision: 3
# Processed by: cddbd v1.5.1PL0 Copyright (c) Steve Scherf et al.
# Submitted via: CDex 1.50
# Normalized: r2:DSETVAR2,TDELIM( - )
#
DISCID=050be912
DTITLE=Various Artist - Country Gold
DYEAR=1993
DGENRE=Country
TTITLE0=B.J. Thomas - Raindrops keep falling on my head
TTITLE1=Don Gibson - Oh! Lonesome me
TTITLE2=Johnny Paycheck - Take this job and shove it
TTITLE3=Karl Denver - Wimoweh
TTITLE4=Jeanie C Riley - Harper Valley PTA
TTITLE5=Ray Peterson - Tell Laura I love her
TTITLE6=Sandy Posey - Single Girl
TTITLE7=Freddy Fender - Wasted days and wasted nights
TTITLE8=Johnny Lee - Lookin' for love
TTITLE9=Roger Miller - King of the road
TTITLE10=Conway Twitty - It's only make believe
TTITLE11=The Kendalls - Heaven's just a sin away
TTITLE12=Ned Miller - From a jack to a king
TTITLE13=Brenda Lee - I'm sorry
TTITLE14=Charley Pride - Me and Bobby McGee
TTITLE15=Glen Campbell - Rhinstone cowboy
TTITLE16=Glen Campbell - Gentle on my mind
TTITLE17=Billie Jo Spears - Crazy
EXTD=Collection of various Country Songs YEAR: 1993
EXTT0=
EXTT1=
EXTT2=
EXTT3=
EXTT4=
EXTT5=
EXTT6=
EXTT7=
EXTT8=
EXTT9=
EXTT10=
EXTT11=
EXTT12=
EXTT13=
EXTT14=
EXTT15=
EXTT16=
EXTT17=
PLAYORDER=
